<svg version="1.1" id="Ebene_1" xmlns="http://www.w3.org/2000/svg" xmlns:xlink="http://www.w3.org/1999/xlink" x="0px" y="0px" width="875px" height="875px" viewBox="-5 -5 870 870" style="enable-background:new 0 0 875 875;" xml:space="preserve">
	<path style="fill:#FFFFFF;stroke:#4A200A;stroke-width:24;stroke-miterlimit:3;" d="M638.094,518.607
	c-2.186,15.644-5.488,30.856-9.82,45.566c-2.174,7.356-4.568,14.619-6.764,22.149c-12.75,43.796,23.191,82.251,16.994,126.621
	c-0.535,3.859-6.596,4.978-10.723,6.369c-36.613,8.659-77.168-10.771-111.754,7.215c-6.359,3.996-12.41,8.182-18.574,12.168
	c-61.693,39.925-137.646,58.704-216.348,47.719C107.968,762.244-12.917,603.159,11.103,431.083
	c24.017-172.071,183.847-291.975,356.986-267.802c47.223,6.59,90.552,23.213,128.125,47.403c6.26,4.03,12.361,8.273,18.285,12.711
	c40.447,31.419,71.986,73.191,96.752,118.507c3.156,6.656,6.07,13.44,8.748,20.32C638.709,410.419,645.74,463.852,638.094,518.607z" />
	<path style="fill-rule:evenodd;clip-rule:evenodd;fill:#4A200A;" d="M400.665,558.339c3.099,1.48,13.627-5.184,23.534-12.582
	c9.906-7.399,39.014-25.9,60.693-34.039c21.676-8.135,76.17-24.425,109.615-30.337c33.441-5.919,105.898-23.684,150.494-40.704
	c44.594-17.02,101.564-57.717,109.615-62.905c8.057-5.178,13.627-4.438,8.057,1.485c-5.578,5.914-30.354,31.818-74.318,57.717
	c-43.975,25.905-110.861,48.838-144.307,56.978c-33.441,8.149-82.986,17.025-97.844,25.904c-14.871,8.88-22.301,9.626-35.928,11.842
	c-13.623,2.211-31.803,9.038-48.701,17.436c-19.168,9.53-43.007,21.719-42.654,23.767c0.328,1.943,16.648,3.613,24.08,3.613
	c7.43,0,18.553-1.229,18.973,0.32c0.525,1.928-6.711,7.294-11.174,9.6c-3.641,1.885-14.764,3.807-21.576,3.807
	c-4.632,0-5.025,3.561-6.268,11.758c-0.903,6.008-4.335,15.954-9.906,24.104c-5.575,8.13-25.201,19.777-34.134,25.149
	c-7.927,4.773-25.787,15.602-43.282,13.653c-12.23-1.37-23.526-18.721-27.743-25.401c-2.502-3.953-7.21-0.058-12.162,2.164
	c-4.96,2.211-11.089,4.685-12.464,2.925c-1.786-2.284,0.861-9.085,5.301-14.236c4.262-4.937,10.729-7.514,8.053-16.515
	c-1.392-4.68-0.798-7.678,4.009-13.854c5.301-6.806,9.615-23.153,10.235-32.028c0.616-8.88,0.616-17.76-5.578-29.602
	c-6.191-11.842-19.813-37.011-35.297-60.679c-15.483-23.689-45.211-54.021-54.5-61.436c-9.287-7.394-11.766-13.296-16.721-22.187
	c-4.96-8.885-34.06-42.179-62.551-78.436c-28.491-36.267-65.65-89.549-88.559-134.689C24.748,135.792,16.07,86.941,13.594,69.925
	c-2.479-17.015,8.672-6.657,14.244,2.964c5.577,9.613,38.397,78.439,65.027,120.625c26.629,42.177,71.843,86.582,100.943,116.178
	c29.114,29.596,86.093,99.901,106.527,133.946c20.438,34.04,48.304,94.719,52.642,96.945c4.337,2.211,16.543,1.271,26.629,5.504
	C389.692,550.314,397.564,556.857,400.665,558.339z" />
</svg>