<?xml version="1.0" encoding="UTF-8" standalone="no"?>
<svg
   xmlns:dc="http://purl.org/dc/elements/1.1/"
   xmlns:cc="http://creativecommons.org/ns#"
   xmlns:rdf="http://www.w3.org/1999/02/22-rdf-syntax-ns#"
   xmlns:svg="http://www.w3.org/2000/svg"
   xmlns="http://www.w3.org/2000/svg"
   viewBox="0 0 1026.2447 506.5936"
   height="506.5936"
   width="1026.2448"
   xml:space="preserve"
   version="1.1"
   id="svg3355"><metadata
     id="metadata3361"><rdf:RDF><cc:Work
         rdf:about=""><dc:format>image/svg+xml</dc:format><dc:type
           rdf:resource="http://purl.org/dc/dcmitype/StillImage" /><dc:title></dc:title></cc:Work></rdf:RDF></metadata><defs
     id="defs3359" /><g
     transform="matrix(0,1.25,1.25,0,-13.35625,-118.4389)"
     id="g3363"><g
       transform="scale(0.12,0.12)"
       id="g3365"><path
         id="path3367"
         style="fill:#ff00ff;fill-opacity:1;fill-rule:evenodd;stroke:none"
         d="m 3952.71,1016.14 0,-49.605 -23.53,0 0,125.285 23.53,0 0,-49.61 177.43,0 0,-26.07 -177.43,0" /><path
         id="path3369"
         style="fill:#ff00ff;fill-opacity:1;fill-rule:evenodd;stroke:none"
         d="m 4133.55,1240.42 c 0,-14.37 -2.69,-27.88 -8.08,-40.54 -5.39,-12.66 -12.71,-23.76 -21.97,-33.3 -9.26,-9.54 -20.17,-17.06 -32.73,-22.54 -12.57,-5.47 -26.13,-8.22 -40.68,-8.22 -13.98,0 -27.3,2.79 -39.96,8.37 -12.67,5.57 -23.77,13.18 -33.31,22.81 -9.54,9.64 -17.1,20.84 -22.68,33.59 -5.57,12.76 -8.36,26.32 -8.36,40.68 0,14.74 2.69,28.48 8.08,41.24 5.39,12.75 12.75,23.81 22.11,33.16 9.35,9.35 20.31,16.72 32.88,22.11 12.56,5.38 26.03,8.08 40.39,8.08 14.55,0 28.15,-2.79 40.81,-8.36 12.66,-5.58 23.67,-13.18 33.03,-22.82 9.35,-9.64 16.77,-20.83 22.25,-33.59 5.48,-12.75 8.22,-26.31 8.22,-40.67 z m -23.53,0.28 c 0,11.38 -2.04,21.81 -6.11,31.29 -4.08,9.48 -9.68,17.73 -16.79,24.75 -7.11,7.02 -15.55,12.47 -25.31,16.36 -9.77,3.89 -20.24,5.83 -31.43,5.83 -11.38,0 -22,-1.89 -31.86,-5.69 -9.86,-3.79 -18.45,-9.15 -25.75,-16.07 -7.3,-6.92 -13.03,-15.22 -17.2,-24.89 -4.18,-9.67 -6.26,-20.3 -6.26,-31.86 0,-11.19 2.18,-21.58 6.54,-31.15 4.36,-9.58 10.19,-17.88 17.49,-24.89 7.3,-7.02 15.79,-12.52 25.46,-16.5 9.67,-3.99 19.91,-5.98 30.72,-5.98 10.81,0 21.1,2.09 30.87,6.26 9.76,4.17 18.34,9.81 25.74,16.93 7.39,7.11 13.23,15.45 17.49,25.03 4.27,9.58 6.4,19.77 6.4,30.58" /><path
         id="path3371"
         style="fill:#ff00ff;fill-opacity:1;fill-rule:evenodd;stroke:none"
         d="m 3929.18,1412.26 0,48.19 c 0,15.49 2.22,29.61 6.66,42.37 4.45,12.75 10.96,23.57 19.56,32.45 8.6,8.89 19.14,15.78 31.61,20.69 12.47,4.92 26.64,7.38 42.51,7.38 12.1,0 24.14,-1.71 36.14,-5.11 12,-3.4 22.77,-9.26 32.32,-17.57 9.54,-8.32 17.29,-19.65 23.24,-34.02 5.95,-14.35 8.92,-32.4 8.92,-54.13 l 0,-40.25 -200.96,0 z m 177.44,43.27 c 0,15.59 -1.93,28.55 -5.79,38.89 -3.86,10.33 -9.22,18.6 -16.1,24.8 -6.87,6.2 -14.92,10.61 -24.14,13.24 -9.23,2.63 -19.2,3.95 -29.94,3.95 -11.29,0 -21.79,-1.46 -31.49,-4.37 -9.69,-2.91 -18.02,-7.56 -24.99,-13.95 -6.97,-6.39 -12.43,-14.52 -16.38,-24.38 -3.95,-9.86 -5.93,-21.65 -5.93,-35.37 l 0,-20 154.76,0 0,17.19" /><path
         id="path3373"
         style="fill:#ff00ff;fill-opacity:1;fill-rule:evenodd;stroke:none"
         d="m 3929.18,1688.69 0,21.26 200.96,77.95 0,-27.78 -53.85,-20.12 0,-83.05 53.85,-20.13 0,-26.93 -200.96,78.8 z m 125.57,42.8 -48.75,-18.42 c -2.46,-0.94 -5.91,-2.27 -10.35,-3.97 -4.44,-1.7 -8.83,-3.31 -13.18,-4.82 -5.1,-1.89 -10.58,-3.87 -16.44,-5.95 5.86,-1.89 11.24,-3.78 16.16,-5.67 4.35,-1.51 8.69,-3.12 13.04,-4.82 4.34,-1.7 7.84,-3.02 10.48,-3.96 l 49.04,-18.72 0,66.33" /><path
         id="path3375"
         style="fill:#ff00ff;fill-opacity:1;fill-rule:evenodd;stroke:none"
         d="m 4040.01,1888.59 -110.83,-64.05 0,28.91 87.02,49.32 -87.02,49.03 0,27.5 110.83,-64.63 90.13,0 0,-26.08 -90.13,0" /><path
         id="path3377"
         style="fill:#ff00ff;fill-opacity:1;fill-rule:evenodd;stroke:none"
         d="m 4047.28,2149.51 c 0,-5.1 -1.84,-9.49 -5.53,-13.18 -3.68,-3.68 -8.07,-5.53 -13.18,-5.53 -5.1,0 -9.49,1.85 -13.18,5.53 -3.68,3.69 -5.53,8.08 -5.53,13.18 0,5.1 1.85,9.5 5.53,13.18 3.69,3.69 8.08,5.53 13.18,5.53 5.11,0 9.5,-1.84 13.18,-5.53 3.69,-3.68 5.53,-8.08 5.53,-13.18" /><path
         id="path3379"
         style="fill:#ff00ff;fill-opacity:1;fill-rule:evenodd;stroke:none"
         d="m 3952.71,2368.2 0,-49.61 -23.53,0 0,125.29 23.53,0 0,-49.61 177.43,0 0,-26.07 -177.43,0" /><path
         id="path3381"
         style="fill:#ff00ff;fill-opacity:1;fill-rule:evenodd;stroke:none"
         d="m 4133.55,2592.48 c 0,-14.37 -2.69,-27.87 -8.08,-40.53 -5.39,-12.67 -12.71,-23.77 -21.97,-33.31 -9.26,-9.54 -20.17,-17.05 -32.73,-22.53 -12.57,-5.48 -26.13,-8.22 -40.68,-8.22 -13.98,0 -27.3,2.78 -39.96,8.36 -12.67,5.57 -23.77,13.18 -33.31,22.81 -9.54,9.64 -17.1,20.84 -22.68,33.59 -5.57,12.76 -8.36,26.31 -8.36,40.68 0,14.74 2.69,28.48 8.08,41.24 5.39,12.75 12.75,23.81 22.11,33.16 9.35,9.36 20.31,16.72 32.88,22.11 12.56,5.39 26.03,8.08 40.39,8.08 14.55,0 28.15,-2.79 40.81,-8.36 12.66,-5.58 23.67,-13.18 33.03,-22.82 9.35,-9.64 16.77,-20.83 22.25,-33.59 5.48,-12.76 8.22,-26.31 8.22,-40.67 z m -23.53,0.28 c 0,11.38 -2.04,21.81 -6.11,31.29 -4.08,9.49 -9.68,17.74 -16.79,24.75 -7.11,7.02 -15.55,12.47 -25.31,16.36 -9.77,3.89 -20.24,5.83 -31.43,5.83 -11.38,0 -22,-1.9 -31.86,-5.69 -9.86,-3.79 -18.45,-9.15 -25.75,-16.07 -7.3,-6.92 -13.03,-15.22 -17.2,-24.89 -4.18,-9.68 -6.26,-20.3 -6.26,-31.86 0,-11.19 2.18,-21.58 6.54,-31.16 4.36,-9.57 10.19,-17.87 17.49,-24.88 7.3,-7.02 15.79,-12.52 25.46,-16.5 9.67,-3.99 19.91,-5.98 30.72,-5.98 10.81,0 21.1,2.09 30.87,6.26 9.76,4.17 18.34,9.82 25.74,16.93 7.39,7.11 13.23,15.46 17.49,25.03 4.27,9.58 6.4,19.77 6.4,30.58" /><path
         id="path3383"
         style="fill:#ff00ff;fill-opacity:1;fill-rule:evenodd;stroke:none"
         d="m 3929.18,2781.32 0,26.08 123.3,44.36 c 3.59,1.34 8.03,2.86 13.32,4.58 5.29,1.71 10.4,3.34 15.31,4.86 5.86,1.91 11.91,3.73 18.14,5.44 -5.86,1.89 -11.53,3.69 -17.01,5.39 -4.72,1.51 -9.44,3.02 -14.17,4.53 -4.72,1.51 -8.69,2.84 -11.9,3.97 l -126.99,45.92 0,24.66 200.96,27.78 0,-26.08 -106.57,-13.6 c -8.69,-1.11 -18,-2.12 -27.92,-3.05 -9.92,-0.92 -19.13,-1.75 -27.63,-2.5 8.69,-2.45 17.24,-5.04 25.65,-7.77 8.4,-2.73 16.29,-5.42 23.67,-8.05 l 112.8,-41.56 0,-22.11 -113.37,-41.08 c -7.18,-2.67 -14.93,-5.33 -23.25,-8 -8.31,-2.66 -16.81,-5.32 -25.5,-7.98 8.5,-0.75 17.62,-1.63 27.35,-2.65 9.73,-1.02 19.13,-2.17 28.2,-3.48 l 106.57,-13.91 0,-25.22 -200.96,29.47" /><path
         id="path3385"
         style="fill:#ff00ff;fill-opacity:1;fill-rule:evenodd;stroke:none"
         d="m 4133.55,3139.11 c 0,-14.36 -2.69,-27.88 -8.08,-40.54 -5.39,-12.66 -12.71,-23.76 -21.97,-33.3 -9.26,-9.54 -20.17,-17.06 -32.73,-22.54 -12.57,-5.47 -26.13,-8.21 -40.68,-8.21 -13.98,0 -27.3,2.78 -39.96,8.36 -12.67,5.57 -23.77,13.18 -33.31,22.82 -9.54,9.63 -17.1,20.83 -22.68,33.59 -5.57,12.75 -8.36,26.31 -8.36,40.67 0,14.74 2.69,28.49 8.08,41.24 5.39,12.75 12.75,23.81 22.11,33.16 9.35,9.35 20.31,16.73 32.88,22.11 12.56,5.39 26.03,8.08 40.39,8.08 14.55,0 28.15,-2.79 40.81,-8.36 12.66,-5.58 23.67,-13.18 33.03,-22.82 9.35,-9.64 16.77,-20.83 22.25,-33.59 5.48,-12.75 8.22,-26.31 8.22,-40.67 z m -23.53,0.28 c 0,11.38 -2.04,21.81 -6.11,31.29 -4.08,9.48 -9.68,17.73 -16.79,24.75 -7.11,7.02 -15.55,12.47 -25.31,16.36 -9.77,3.89 -20.24,5.83 -31.43,5.83 -11.38,0 -22,-1.89 -31.86,-5.69 -9.86,-3.79 -18.45,-9.14 -25.75,-16.07 -7.3,-6.92 -13.03,-15.22 -17.2,-24.89 -4.18,-9.67 -6.26,-20.29 -6.26,-31.86 0,-11.19 2.18,-21.57 6.54,-31.15 4.36,-9.58 10.19,-17.87 17.49,-24.89 7.3,-7.02 15.79,-12.52 25.46,-16.5 9.67,-3.98 19.91,-5.98 30.72,-5.98 10.81,0 21.1,2.09 30.87,6.26 9.76,4.17 18.34,9.81 25.74,16.93 7.39,7.11 13.23,15.45 17.49,25.03 4.27,9.58 6.4,19.77 6.4,30.58" /><path
         id="path3387"
         style="fill:#ff00ff;fill-opacity:1;fill-rule:evenodd;stroke:none"
         d="m 3929.18,3310.95 0,49.89 c 0,10.77 1.32,20.07 3.97,27.91 2.65,7.85 6.33,14.41 11.06,19.71 4.72,5.29 10.34,9.21 16.86,11.76 6.52,2.55 13.65,3.82 21.4,3.82 14.74,0 27.07,-4.58 36.99,-13.75 9.92,-9.18 16.02,-22.74 18.28,-40.71 l 92.4,65.47 0,-30.89 -90.13,-60.66 0,-6.47 90.13,0 0,-26.08 -200.96,0 z m 88.72,41.31 c 0,16.55 -2.93,28.31 -8.79,35.27 -5.85,6.96 -13.98,10.44 -24.37,10.44 -4.72,0 -9.17,-0.61 -13.32,-1.84 -4.16,-1.22 -7.71,-3.33 -10.63,-6.34 -2.93,-3.02 -5.25,-7.11 -6.95,-12.28 -1.7,-5.17 -2.55,-11.71 -2.55,-19.6 l 0,-20.88 66.61,0 0,15.23" /><path
         id="path3389"
         style="fill:#ff00ff;fill-opacity:1;fill-rule:evenodd;stroke:none"
         d="m 3929.18,3489.59 0,49.89 c 0,10.77 1.32,20.08 3.97,27.92 2.65,7.84 6.33,14.41 11.06,19.7 4.72,5.29 10.34,9.21 16.86,11.76 6.52,2.55 13.65,3.83 21.4,3.83 14.74,0 27.07,-4.59 36.99,-13.76 9.92,-9.17 16.02,-22.74 18.28,-40.71 l 92.4,65.48 0,-30.9 -90.13,-60.66 0,-6.47 90.13,0 0,-26.08 -200.96,0 z m 88.72,41.32 c 0,16.55 -2.93,28.3 -8.79,35.26 -5.85,6.96 -13.98,10.44 -24.37,10.44 -4.72,0 -9.17,-0.61 -13.32,-1.83 -4.16,-1.23 -7.71,-3.34 -10.63,-6.35 -2.93,-3.01 -5.25,-7.1 -6.95,-12.27 -1.7,-5.18 -2.55,-11.71 -2.55,-19.61 l 0,-20.88 66.61,0 0,15.24" /><path
         id="path3391"
         style="fill:#ff00ff;fill-opacity:1;fill-rule:evenodd;stroke:none"
         d="m 4133.55,3762.91 c 0,-14.36 -2.69,-27.87 -8.08,-40.53 -5.39,-12.67 -12.71,-23.77 -21.97,-33.31 -9.26,-9.54 -20.17,-17.05 -32.73,-22.53 -12.57,-5.48 -26.13,-8.22 -40.68,-8.22 -13.98,0 -27.3,2.79 -39.96,8.36 -12.67,5.57 -23.77,13.18 -33.31,22.82 -9.54,9.64 -17.1,20.83 -22.68,33.59 -5.57,12.75 -8.36,26.31 -8.36,40.67 0,14.74 2.69,28.49 8.08,41.24 5.39,12.76 12.75,23.81 22.11,33.16 9.35,9.36 20.31,16.73 32.88,22.11 12.56,5.39 26.03,8.08 40.39,8.08 14.55,0 28.15,-2.78 40.81,-8.36 12.66,-5.58 23.67,-13.18 33.03,-22.82 9.35,-9.63 16.77,-20.83 22.25,-33.58 5.48,-12.76 8.22,-26.32 8.22,-40.68 z m -23.53,0.29 c 0,11.37 -2.04,21.8 -6.11,31.28 -4.08,9.49 -9.68,17.74 -16.79,24.75 -7.11,7.02 -15.55,12.47 -25.31,16.36 -9.77,3.89 -20.24,5.84 -31.43,5.84 -11.38,0 -22,-1.9 -31.86,-5.7 -9.86,-3.79 -18.45,-9.14 -25.75,-16.07 -7.3,-6.92 -13.03,-15.21 -17.2,-24.89 -4.18,-9.67 -6.26,-20.29 -6.26,-31.86 0,-11.19 2.18,-21.57 6.54,-31.15 4.36,-9.58 10.19,-17.87 17.49,-24.89 7.3,-7.02 15.79,-12.52 25.46,-16.5 9.67,-3.98 19.91,-5.98 30.72,-5.98 10.81,0 21.1,2.09 30.87,6.26 9.76,4.17 18.34,9.82 25.74,16.93 7.39,7.11 13.23,15.46 17.49,25.03 4.27,9.58 6.4,19.77 6.4,30.59" /><path
         id="path3393"
         style="fill:#ff00ff;fill-opacity:1;fill-rule:evenodd;stroke:none"
         d="m 3929.18,3916.61 0,27.5 127.27,43.36 c 4.91,1.7 10.35,3.36 16.3,4.96 5.95,1.61 11.95,3.17 18,4.68 -6.05,1.51 -11.91,3.02 -17.58,4.53 -5.67,1.52 -11.24,3.22 -16.72,5.11 l -127.27,40.81 0,22.4 127.27,40.81 c 5.48,1.7 11.05,3.36 16.72,4.96 5.67,1.61 11.44,3.17 17.29,4.68 -5.85,1.53 -11.71,3.1 -17.57,4.72 -5.86,1.63 -11.34,3.3 -16.44,5.02 l -127.27,43.83 0,26.08 200.96,-70.01 0,-21.26 -126.13,-40.82 c -5.48,-1.89 -11.24,-3.59 -17.29,-5.1 -6.04,-1.51 -12.09,-3.02 -18.14,-4.53 6.43,-1.52 12.76,-3.13 18.99,-4.82 6.24,-1.7 11.81,-3.31 16.73,-4.82 l 125.84,-40.82 0,-21.26 -200.96,-70.01" /><path
         id="path3395"
         style="fill:#ff00ff;fill-opacity:1;fill-rule:evenodd;stroke:none"
         d="m 4047.23,4372.54 c 0,-5.1 -1.84,-9.5 -5.53,-13.18 -3.68,-3.68 -8.07,-5.53 -13.18,-5.53 -5.1,0 -9.49,1.85 -13.18,5.53 -3.68,3.68 -5.53,8.08 -5.53,13.18 0,5.1 1.85,9.5 5.53,13.18 3.69,3.69 8.08,5.53 13.18,5.53 5.11,0 9.5,-1.84 13.18,-5.53 3.69,-3.68 5.53,-8.08 5.53,-13.18" /><path
         id="path3397"
         style="fill:#ff00ff;fill-opacity:1;fill-rule:evenodd;stroke:none"
         d="m 3952.71,4591.22 0,-49.6 -23.53,0 0,125.29 23.53,0 0,-49.61 177.43,0 0,-26.08 -177.43,0" /><path
         id="path3399"
         style="fill:#ff00ff;fill-opacity:1;fill-rule:evenodd;stroke:none"
         d="m 4133.55,4815.5 c 0,-14.36 -2.69,-27.87 -8.08,-40.53 -5.39,-12.66 -12.71,-23.76 -21.97,-33.31 -9.26,-9.53 -20.17,-17.05 -32.73,-22.53 -12.57,-5.48 -26.13,-8.22 -40.68,-8.22 -13.98,0 -27.3,2.79 -39.96,8.36 -12.67,5.58 -23.77,13.18 -33.31,22.82 -9.54,9.64 -17.1,20.84 -22.68,33.59 -5.57,12.75 -8.36,26.31 -8.36,40.68 0,14.73 2.69,28.48 8.08,41.23 5.39,12.76 12.75,23.82 22.11,33.17 9.35,9.35 20.31,16.72 32.88,22.11 12.56,5.38 26.03,8.08 40.39,8.08 14.55,0 28.15,-2.79 40.81,-8.37 12.66,-5.57 23.67,-13.18 33.03,-22.81 9.35,-9.64 16.77,-20.84 22.25,-33.59 5.48,-12.76 8.22,-26.32 8.22,-40.68 z m -23.53,0.29 c 0,11.38 -2.04,21.81 -6.11,31.29 -4.08,9.48 -9.68,17.73 -16.79,24.75 -7.11,7.01 -15.55,12.47 -25.31,16.35 -9.77,3.89 -20.24,5.84 -31.43,5.84 -11.38,0 -22,-1.9 -31.86,-5.69 -9.86,-3.79 -18.45,-9.15 -25.75,-16.07 -7.3,-6.92 -13.03,-15.22 -17.2,-24.9 -4.18,-9.67 -6.26,-20.29 -6.26,-31.86 0,-11.19 2.18,-21.57 6.54,-31.15 4.36,-9.57 10.19,-17.87 17.49,-24.89 7.3,-7.01 15.79,-12.51 25.46,-16.5 9.67,-3.98 19.91,-5.97 30.72,-5.97 10.81,0 21.1,2.08 30.87,6.26 9.76,4.17 18.34,9.81 25.74,16.93 7.39,7.11 13.23,15.45 17.49,25.03 4.27,9.58 6.4,19.77 6.4,30.58" /><path
         id="path3401"
         style="fill:#ff00ff;fill-opacity:1;fill-rule:evenodd;stroke:none"
         d="m 4025.55,5093.36 0,82.76 8.51,0 c 13.41,0 26.17,-2.17 38.26,-6.52 12.1,-4.35 22.68,-10.67 31.75,-18.99 9.07,-8.31 16.25,-18.47 21.54,-30.47 5.29,-12 7.94,-25.65 7.94,-40.96 0,-14.93 -2.74,-28.63 -8.22,-41.1 -5.48,-12.47 -12.9,-23.19 -22.25,-32.17 -9.36,-8.98 -20.37,-15.96 -33.03,-20.97 -12.66,-5.01 -26.17,-7.51 -40.53,-7.51 -13.79,0 -26.97,2.73 -39.54,8.21 -12.56,5.49 -23.62,12.95 -33.16,22.4 -9.54,9.44 -17.1,20.55 -22.68,33.3 -5.57,12.76 -8.36,26.5 -8.36,41.24 0,17.58 3.36,33.21 10.06,46.91 6.71,13.71 16.49,25.94 29.34,36.71 l 17.29,-19.84 c -11.52,-8.54 -19.93,-18.16 -25.22,-28.88 -5.3,-10.72 -7.94,-22.91 -7.94,-36.57 0,-11.39 2.13,-21.82 6.4,-31.3 4.26,-9.49 10.05,-17.65 17.35,-24.48 7.3,-6.83 15.79,-12.14 25.46,-15.94 9.67,-3.79 19.91,-5.69 30.72,-5.69 11.38,0 21.95,1.9 31.71,5.69 9.77,3.8 18.3,9.06 25.6,15.8 7.31,6.73 13.04,14.74 17.21,24.04 4.18,9.29 6.26,19.45 6.26,30.45 0,10.24 -1.63,19.49 -4.91,27.74 -3.27,8.25 -7.7,15.37 -13.29,21.34 -5.58,5.98 -12.08,10.67 -19.49,14.09 -7.41,3.41 -15.16,5.4 -23.25,5.98 l 0,-55.27 -23.53,0" /><path
         id="path3403"
         style="fill:#ff00ff;fill-opacity:1;fill-rule:evenodd;stroke:none"
         d="m 3929.18,5236 0,104.88 23.53,0 0,-78.8 61.79,0 0,75.68 22.68,0 0,-75.68 69.44,0 0,79.65 23.52,0 0,-105.73 -200.96,0" /><path
         id="path3405"
         style="fill:#ff00ff;fill-opacity:1;fill-rule:evenodd;stroke:none"
         d="m 3952.71,5442.71 0,-49.6 -23.53,0 0,125.28 23.53,0 0,-49.6 177.43,0 0,-26.08 -177.43,0" /><path
         id="path3407"
         style="fill:#ff00ff;fill-opacity:1;fill-rule:evenodd;stroke:none"
         d="m 3929.18,5572.32 0,26.07 81.07,0 0,97.51 -81.07,0 0,26.08 200.96,0 0,-26.08 -96.37,0 0,-97.51 96.37,0 0,-26.07 -200.96,0" /><path
         id="path3409"
         style="fill:#ff00ff;fill-opacity:1;fill-rule:evenodd;stroke:none"
         d="m 3929.18,5798.3 0,104.87 23.53,0 0,-78.8 61.79,0 0,75.68 22.68,0 0,-75.68 69.44,0 0,79.65 23.52,0 0,-105.72 -200.96,0" /><path
         id="path3411"
         style="fill:#ff00ff;fill-opacity:1;fill-rule:evenodd;stroke:none"
         d="m 3929.18,5976.94 0,49.89 c 0,10.77 1.32,20.08 3.97,27.92 2.65,7.84 6.33,14.41 11.06,19.7 4.72,5.29 10.34,9.21 16.86,11.76 6.52,2.55 13.65,3.83 21.4,3.83 14.74,0 27.07,-4.59 36.99,-13.76 9.92,-9.17 16.02,-22.74 18.28,-40.71 l 92.4,65.48 0,-30.9 -90.13,-60.66 0,-6.47 90.13,0 0,-26.08 -200.96,0 z m 88.72,41.31 c 0,16.55 -2.93,28.31 -8.79,35.27 -5.85,6.96 -13.98,10.44 -24.37,10.44 -4.72,0 -9.17,-0.61 -13.32,-1.83 -4.16,-1.23 -7.71,-3.34 -10.63,-6.35 -2.93,-3.01 -5.25,-7.1 -6.95,-12.28 -1.7,-5.17 -2.55,-11.7 -2.55,-19.61 l 0,-20.87 66.61,0 0,15.23" /><path
         id="path3413"
         style="fill:#ff00ff;fill-opacity:1;fill-rule:evenodd;stroke:none"
         d="m 2933.48,337.16 0,-214.785 -101.87,0 0,542.488 101.87,0 0,-214.789 768.32,0 0,-112.914 -768.32,0" /><path
         id="path3415"
         style="fill:#ff00ff;fill-opacity:1;fill-rule:evenodd;stroke:none"
         d="m 3316.41,728.684 89.5938,0 0,310.52 -89.5938,0 0,-310.52 z" /><path
         id="path3417"
         style="fill:#ff00ff;fill-opacity:1;fill-rule:evenodd;stroke:none"
         d="m 3658.84,1829.62 c 16.36,-34.37 29.05,-71.8 38.05,-112.31 9,-40.5 13.5,-83.25 13.5,-128.26 0,-63.82 -11.25,-122.32 -33.75,-175.51 -22.51,-53.18 -53.39,-99.21 -92.67,-138.07 -39.27,-38.87 -85.71,-68.94 -139.3,-90.21 -53.6,-21.28 -111.9,-31.91 -174.9,-31.91 -67.91,0 -129.48,11.25 -184.72,33.75 -55.23,22.5 -102.28,53.59 -141.14,93.28 -38.87,39.68 -68.94,86.32 -90.21,139.91 -21.27,53.6 -31.91,111.49 -31.91,173.67 0,42.55 4.09,82.44 12.27,119.67 8.18,37.23 20.05,72.21 35.59,104.94 l 119.06,0 c -18,-28.64 -33.35,-63 -46.03,-103.1 -12.68,-40.09 -19.02,-83.05 -19.02,-128.87 0,-44.19 8.61,-85.3 25.82,-123.35 17.22,-38.05 40.98,-71.18 71.31,-99.41 30.33,-28.23 66.39,-50.32 108.2,-66.28 41.81,-15.95 87.71,-23.93 137.71,-23.93 49.18,0 94.68,8.18 136.49,24.54 41.8,16.37 77.87,39.07 108.19,68.12 30.33,29.05 54.1,63.41 71.32,103.1 17.21,39.68 25.82,82.43 25.82,128.26 0,42.55 -5.22,84.07 -15.64,124.57 -10.43,40.51 -26.49,76.3 -48.18,107.4 l 114.14,0" /><path
         id="path3419"
         style="fill:#ff00ff;fill-opacity:1;fill-rule:evenodd;stroke:none"
         d="m 3716.52,2406.47 c 0,-62.18 -11.66,-120.69 -34.97,-175.51 -23.32,-54.82 -55.03,-102.89 -95.12,-144.21 -40.1,-41.32 -87.35,-73.85 -141.76,-97.58 -54.42,-23.73 -113.12,-35.59 -176.13,-35.59 -60.55,0 -118.23,12.07 -173.06,36.21 -54.82,24.13 -102.89,57.07 -144.21,98.8 -41.32,41.73 -74.05,90.21 -98.18,145.44 -24.14,55.23 -36.21,113.93 -36.21,176.12 0,63.82 11.66,123.35 34.98,178.58 23.32,55.23 55.23,103.1 95.73,143.6 40.5,40.5 87.96,72.42 142.37,95.73 54.42,23.32 112.72,34.98 174.9,34.98 63,0 121.92,-12.06 176.74,-36.2 54.82,-24.14 102.48,-57.07 142.99,-98.8 40.5,-41.74 72.61,-90.22 96.34,-145.45 23.73,-55.23 35.59,-113.93 35.59,-176.12 z m -101.86,1.23 c 0,49.27 -8.83,94.44 -26.49,135.5 -17.65,41.05 -41.88,76.77 -72.67,107.16 -30.79,30.38 -67.33,53.99 -109.62,70.83 -42.29,16.84 -87.65,25.26 -136.09,25.26 -49.27,0 -95.26,-8.22 -137.96,-24.64 -42.7,-16.42 -79.86,-39.62 -111.47,-69.59 -31.61,-29.98 -56.45,-65.9 -74.52,-107.79 -18.06,-41.88 -27.09,-87.87 -27.09,-137.96 0,-48.45 9.44,-93.42 28.32,-134.88 18.89,-41.47 44.14,-77.4 75.75,-107.78 31.62,-30.38 68.37,-54.2 110.24,-71.45 41.88,-17.24 86.22,-25.87 133.03,-25.87 46.8,0 91.35,9.04 133.63,27.1 42.29,18.07 79.45,42.5 111.47,73.3 32.03,30.8 57.28,66.93 75.75,108.4 18.48,41.46 27.72,85.6 27.72,132.41" /><path
         id="path3421"
         style="fill:#ff00ff;fill-opacity:1;fill-rule:evenodd;stroke:none"
         d="m 3490.69,3065.55 c 36.01,11.46 66.28,30.9 90.83,58.31 24.54,27.41 36.82,61.98 36.82,103.71 0,22.09 -3.68,41.93 -11.05,59.52 -7.36,17.59 -17.39,32.32 -30.07,44.19 -12.68,11.86 -27.61,20.86 -44.8,27 -17.18,6.13 -35.18,9.2 -54,9.2 -34.37,0 -62.19,-9.23 -83.46,-27.71 -21.28,-18.47 -40.09,-41.25 -56.46,-68.34 -16.36,-27.1 -31.91,-56.85 -46.64,-89.27 -14.73,-32.43 -32.32,-62.18 -52.77,-89.28 -20.46,-27.09 -45.62,-49.87 -75.48,-68.34 -29.87,-18.48 -68.13,-27.72 -114.76,-27.72 -31.1,0 -60.76,5.94 -88.99,17.8 -28.23,11.86 -52.77,28.64 -73.64,50.32 -20.86,21.69 -37.43,47.26 -49.7,76.71 -12.28,29.46 -18.41,61.37 -18.41,95.74 0,54 12.07,100.23 36.2,138.68 24.14,38.46 59.53,69.56 106.17,93.29 l 50.32,-87.15 c -29.46,-13.91 -52.98,-33.55 -70.57,-58.91 -17.6,-25.37 -26.39,-54 -26.39,-85.91 0,-36.82 11.86,-67.3 35.59,-91.44 23.73,-24.14 54.82,-36.21 93.28,-36.21 32.73,0 59.73,9.17 81,27.52 21.28,18.35 40.1,41.18 56.46,68.5 16.37,27.32 32.12,57.09 47.26,89.31 15.13,32.22 32.93,61.99 53.39,89.31 20.45,27.32 45.41,50.16 74.86,68.5 29.46,18.35 67.1,27.52 112.92,27.52 34.36,0 66.69,-6.34 96.96,-19.02 30.28,-12.68 56.46,-30.28 78.55,-52.78 22.09,-22.5 39.48,-49.71 52.16,-81.62 12.69,-31.91 19.03,-67.09 19.03,-105.55 0,-61.37 -16.37,-114.14 -49.1,-158.33 -32.73,-44.18 -74.86,-75.69 -126.41,-94.51 l -49.1,96.96" /><path
         id="path3423"
         style="fill:#ff00ff;fill-opacity:1;fill-rule:evenodd;stroke:none"
         d="m 2831.61,3717.28 0,112.92 533.89,192.07 c 15.55,5.78 34.78,12.39 57.69,19.82 22.91,7.44 45,14.46 66.27,21.07 25.37,8.26 51.55,16.11 78.56,23.55 -25.37,8.18 -49.92,15.96 -73.64,23.32 -20.46,6.55 -40.92,13.09 -61.37,19.64 -20.46,6.54 -37.64,12.27 -51.55,17.18 l -549.85,198.83 0,106.78 870.19,120.28 0,-112.92 -461.49,-58.87 c -37.63,-4.81 -77.93,-9.21 -120.89,-13.21 -42.96,-4.01 -82.85,-7.61 -119.67,-10.82 37.64,-10.61 74.67,-21.83 111.08,-33.67 36.41,-11.83 70.57,-23.45 102.48,-34.87 l 488.49,-179.94 0,-95.73 -490.94,-177.91 c -31.09,-11.53 -64.65,-23.07 -100.65,-34.6 -36,-11.53 -72.82,-23.06 -110.46,-34.59 36.82,-3.21 76.3,-7.02 118.44,-11.44 42.14,-4.42 82.85,-9.44 122.12,-15.06 l 461.49,-60.24 0,-109.24 -870.19,127.65" /><path
         id="path3425"
         style="fill:#ff00ff;fill-opacity:1;fill-rule:evenodd;stroke:none"
         d="m 2831.61,4734.75 0,454.12 101.87,0 0,-341.2 267.56,0 0,327.7 98.19,0 0,-327.7 300.7,0 0,344.88 101.87,0 0,-457.8 -870.19,0" /><path
         id="path3427"
         style="fill:#ff00ff;fill-opacity:1;fill-rule:evenodd;stroke:none"
         d="m 2933.48,5507.98 0,-214.78 -101.87,0 0,542.48 101.87,0 0,-214.78 768.32,0 0,-112.92 -768.32,0" /><path
         id="path3429"
         style="fill:#ff00ff;fill-opacity:1;fill-rule:evenodd;stroke:none"
         d="m 2831.61,5947.37 870.191,0 0,112.918 -870.191,0 0,-112.918 z" /><path
         id="path3431"
         style="fill:#ff00ff;fill-opacity:1;fill-rule:evenodd;stroke:none"
         d="m 3658.84,6897.34 c 16.36,-34.37 29.05,-71.8 38.05,-112.3 9,-40.5 13.5,-83.26 13.5,-128.26 0,-63.82 -11.25,-122.33 -33.75,-175.51 -22.51,-53.19 -53.39,-99.21 -92.67,-138.08 -39.27,-38.87 -85.71,-68.94 -139.3,-90.21 -53.6,-21.27 -111.9,-31.91 -174.9,-31.91 -67.91,0 -129.48,11.25 -184.72,33.75 -55.23,22.5 -102.28,53.6 -141.14,93.28 -38.87,39.69 -68.94,86.33 -90.21,139.92 -21.27,53.59 -31.91,111.48 -31.91,173.67 0,42.55 4.09,82.44 12.27,119.67 8.18,37.23 20.05,72.2 35.59,104.93 l 119.06,0 c -18,-28.63 -33.35,-63 -46.03,-103.09 -12.68,-40.1 -19.02,-83.06 -19.02,-128.88 0,-44.18 8.61,-85.3 25.82,-123.34 17.22,-38.05 40.98,-71.19 71.31,-99.42 30.33,-28.23 66.39,-50.32 108.2,-66.27 41.81,-15.96 87.71,-23.94 137.71,-23.94 49.18,0 94.68,8.18 136.49,24.55 41.8,16.36 77.87,39.07 108.19,68.12 30.33,29.04 54.1,63.41 71.32,103.09 17.21,39.69 25.82,82.44 25.82,128.26 0,42.55 -5.22,84.08 -15.64,124.58 -10.43,40.5 -26.49,76.3 -48.18,107.39 l 114.14,0" /><path
         id="path3433"
         style="fill:#ff00ff;fill-opacity:1;fill-rule:evenodd;stroke:none"
         d="m 2088.5,3477.41 c -152.58,3.61 -301.39,6.33 -446.43,8.14 -145.04,1.81 -286.02,2.71 -422.91,2.71 l -309.39,0 0,-49.75 c 0,-73.58 1.96,-138.87 5.882,-195.86 3.918,-56.99 9.496,-105.38 16.735,-145.19 -12.063,1.21 -22.012,2.11 -29.852,2.72 -7.84,0.6 -15.078,0.9 -21.711,0.9 -7.238,0 -15.23,-0.3 -23.972,-0.9 -8.747,-0.61 -20.055,-1.51 -33.926,-2.72 1.808,70.56 3.168,142.48 4.07,215.75 0.906,73.28 1.359,148.82 1.359,226.61 0,79.01 -0.453,159.37 -1.359,241.09 -0.902,81.72 -1.957,165.7 -3.164,251.94 5.426,-1.21 11.758,-2.11 18.996,-2.72 7.238,-0.6 18.695,-0.9 34.375,-0.9 15.078,0 26.387,0.3 33.926,0.9 7.539,0.61 14.625,1.51 21.258,2.72 -7.84,-42.22 -13.571,-89.86 -17.188,-142.93 -3.617,-53.08 -5.429,-114.59 -5.429,-184.55 l 0.906,-54.28 c 52.469,-3.01 111.724,-5.27 177.764,-6.78 66.03,-1.51 144.89,-2.26 236.56,-2.26 117.6,0 240.33,0.9 368.18,2.71 127.86,1.81 259.63,4.53 395.32,8.14 -1.8,-13.87 -3.16,-27.74 -4.07,-41.61 -0.9,-13.87 -1.36,-28.34 -1.36,-43.42 0,-13.87 0.46,-28.35 1.36,-43.42 0.91,-15.08 2.27,-30.76 4.07,-47.04" /><path
         id="path3435"
         style="fill:#ff00ff;fill-opacity:1;fill-rule:evenodd;stroke:none"
         d="m 2485.73,4031.1 c 34.38,-46.44 60.31,-104.49 77.8,-174.14 17.49,-69.66 26.23,-149.72 26.23,-240.18 0,-205.65 -57.29,-364.87 -171.88,-477.65 -114.58,-112.77 -275.91,-169.17 -483.97,-169.17 -200.23,0 -359.89,62.27 -479,186.81 -119.11,124.54 -178.67,291.44 -178.67,500.71 0,72.98 7.39,142.94 22.16,209.88 14.78,66.94 36.94,129.66 66.49,188.16 31.97,-9.65 62.57,-17.04 91.82,-22.16 29.25,-5.13 58.05,-7.69 86.4,-7.69 -68.75,-44.03 -119.11,-96.19 -151.08,-156.5 -31.96,-60.31 -47.94,-132.68 -47.94,-217.11 0,-155.6 51.71,-276.37 155.14,-362.31 103.43,-85.94 248.93,-128.91 436.48,-128.91 180.93,0 323.41,42.67 427.44,128.01 104.03,85.33 156.05,201.88 156.05,349.64 0,69.35 -13.27,138.4 -39.8,207.16 -26.54,68.75 -65.13,134.49 -115.79,197.21 l 122.12,-11.76" /><path
         id="path3437"
         style="fill:#ff00ff;fill-opacity:1;fill-rule:evenodd;stroke:none"
         d="m 2531,1720.2 39.3086,0 0,1323.35 -39.3086,0 0,-1323.35 z" /><path
         id="path3439"
         style="fill:#ff00ff;fill-opacity:1;fill-rule:evenodd;stroke:none"
         d="m 2531,4183.46 39.3086,0 0,1323.34 -39.3086,0 0,-1323.34 z" /></g></g></svg>